<svg id="Слой_1" data-name="Слой 1" xmlns="http://www.w3.org/2000/svg" viewBox="0 0 516.76 86.68"><defs><style>.cls-7{fill:#fff}</style></defs><path fill="#e74443" d="M47.85 5.04L71.22 0l23.65 16.09-21.78 7.16L47.85 5.04z"/><path fill="#9f2d2b" d="M84.04 42.58l10.83-26.49-21.78 7.16L61.8 52.94l22.24-10.36z"/><path fill="#bc3631" d="M41.88 24.16l.77-1.68 5.2-17.44 25.24 18.21-10.76 28.31-20.45-27.4z"/><path fill="#14724b" d="M10.35 70.54l29.7 9.34-11.94-37.3L0 37.86l10.35 32.68z"/><path fill="#13593c" d="M55.93 23.25L28.11 42.58l11.94 37.3 25.01-22.42-9.13-34.21z"/><path fill="#03955b" d="M26.71 20.79L0 37.86l28.11 4.72 27.82-19.33-29.22-2.46z"/><path class="cls-7" d="M44.57 38.23l9.09 7.8-4.08 8.15-7.23.42 2.22-16.37z"/><path class="cls-7" d="M42.63 55.47l7.05-.45 4.14-8.08-2.39 13.35-8.8-4.82zM17.34 35.73l10.77-6.06-1.75-4.64-9.02 10.7zm1.22.26l10.02-5.79h9.46l-19.48 5.79zm9.4-11.33l1.54 4.35 8.14-1.69-9.68-2.66zm3.2 4.7l7.65-1.64.54 1.81-8.19-.17zM63.84 5.61l2.46 1.75 1.3 3.53-3.4-1.4-.36-3.88zm1.46 5.07l3.59 3.74-.95-2.65-2.64-1.09zm8.87-2.43l1.05 1.46 4.25 1.36-5.3-2.82zm-9.25-2.84l2.37 1.69 6.56 2.14-1.47-1.83-7.46-2zM67.6 7.8l1.5 3.74 6.37 2.77 1.98-.66-3.02-3.69L67.6 7.8zm8.19 2.6l2.4 2.97 3.16-1.2-5.56-1.77zm-6.4 2.04l1.36 3.65 3.86-1.35-5.22-2.3zm3.14 3.81l3.26-1.2 2.93 1.3-6.19-.1zm4.08-1.53l1.14-.46 1.62 1.83-2.76-1.37zm1.96-.77l1.62 2.14 1.28-3.27-2.9 1.13z"/><path class="cls-7" d="M80.13 25.41l-.93 2.67-2.63 1-.51 1.76.79-.26s.78-.26.5.49-2.46 7-2.46 7a1.42 1.42 0 0 1-.89.86l-.73.26-1 2 2.41-.94-.79 2.46 1.24-.49.89-2.53.84-.31-.82 2.46 1.27-.51.93-2.49A9.54 9.54 0 0 0 82.11 36c1.08-1.62 2.21-4.24.48-4.45a6.27 6.27 0 0 0 2-3.77c0-.8-.78-1.4-2-.8.52-1.28 1-2.66 1-2.66l-1.28.44-.94 2.62-1 .28-.69 2 1.4-.49s1.42-.54.91.86a3.85 3.85 0 0 1-3.32 2.67c.74-2 .88-2.51.88-2.51l-.58.11-1 4.07s3.08-1.51 2.88-.05-1.86 2.89-4 3.46l1-2.81-.93.29z" transform="translate(-.04 -.03)"/><path class="cls-7" d="M81.26 24.96l-1.17.42-1.91 5.57-1.79 4.32 1.18-.09.25-.3 2.24-6.33 1.2-3.59z"/><path class="cls-7" d="M13.13 47.43l.74 2.84-3.37-.7.5 1.72.71.18s1.47 0 1.82 1.23l2.11 7.13s.39.84-.67.59l-1.05-.24.24 2 3.59 1 .86 2.82 1.93.53-.81-2.95 1.34.42.93 3 2 .53-.88-3.06s2.88 1 4 .07.63-2.56.21-3.47a6.46 6.46 0 0 0-3.62-3.27c1.48-.46 1.41-2.21.14-3.83s-4.47-2.68-4.85-2.68a23.75 23.75 0 0 1-.85-2.95l-1.82-.24 1.09 3.61-1 .85s3.9.49 4.67 2.21-.77 2-3.62 1.3a10 10 0 0 0 .49 1.72s5.34.67 5.8 3.23c.45 2.14-2.95 1.09-4.59.56-.47-1.3-1.1-3.12-1.1-3.12l-1.65-1.2z" transform="translate(-.04 -.03)"/><path class="cls-7" d="M14.85 47.72l-1.76-.32 1.05 3.7 2.07 7.1 1.98.77-.73-2.92-1.11-3.52 1.17-.68-.31-1.06-1.5-.27-.86-2.8z"/><path d="M131.3 62.7v5.49h-12.68V5.25h12.68v23.56c3.51-4.41 8.36-6.66 14.74-6.66A19 19 0 0 1 161.15 29c4 4.49 6 10.07 6 16.72s-2 12.32-6 16.9A19.23 19.23 0 0 1 146 69.36c-6.43 0-11.37-2.25-14.7-6.66zm19.87-8a12.71 12.71 0 0 0 3.42-9 12.64 12.64 0 0 0-3.42-8.9 11.4 11.4 0 0 0-8.72-3.6 12.61 12.61 0 0 0-11.15 6.66v11.69a12.69 12.69 0 0 0 11.15 6.75 11.4 11.4 0 0 0 8.72-3.6zm32.27-50.89a7.51 7.51 0 0 1 7.56 7.65 7.56 7.56 0 0 1-15.11 0 7.51 7.51 0 0 1 7.55-7.65zm-6.29 64.38V23.32h12.68v44.87zm38.39 0h-12.68V23.32h12.68v5.4a19.44 19.44 0 0 1 15-6.57c10.42 0 16.36 7 16.36 18.53v27.51h-12.66V43.28c0-6.92-3.87-9.53-8.54-9.53a12.82 12.82 0 0 0-10.16 5.85zm40.73-6.93a7.82 7.82 0 0 1 15.64 0 7.82 7.82 0 1 1-15.64 0z" transform="translate(-.04 -.03)" fill="#03955a"/><path class="cls-7" d="M313 23.32h12.67V63c0 16.45-13.3 23.74-26 23.74-7.37 0-13.21-1.26-17.62-3.87V71.42a31 31 0 0 0 16.27 4.32c6.93 0 14.66-2.61 14.66-12.14v-2.79c-3.51 4.23-8.45 6.39-14.84 6.39a19.26 19.26 0 0 1-15-6.48 23.28 23.28 0 0 1-5.84-16.09 23.05 23.05 0 0 1 5.84-16 19.26 19.26 0 0 1 15-6.48c6.39 0 11.33 2.16 14.84 6.39zm0 26.79V39.33a12.91 12.91 0 0 0-11.15-6.12c-7.1 0-11.87 4.95-11.87 11.51s4.95 11.51 11.87 11.51A12.91 12.91 0 0 0 313 50.11zm69.94 7.74v9.26c-1.62 1.26-3.86 1.89-6.83 1.89-5.13 0-8.45-1.89-10.16-5.76-4 4.05-9.08 6.12-15.46 6.12-9.71 0-16.55-5.94-16.55-15 0-4.76 1.71-8.45 5.22-11a20.82 20.82 0 0 1 12.49-3.77 27.61 27.61 0 0 1 13 2.78V41c0-5.66-4-8.45-11.87-8.45a26.19 26.19 0 0 0-13.57 3.78V25.75c4.58-2.43 10.07-3.6 16.63-3.6 6.38 0 11.6 1.53 15.46 4.68s5.94 7.46 5.94 13V55c0 2.25 1.08 3.42 3.14 3.42a5.36 5.36 0 0 0 2.56-.57zm-18.34-7.37a16.55 16.55 0 0 0-9.35-2.61c-5.39 0-8.81 2.15-8.81 5.84 0 4 3.33 5.85 8 5.85 4.41 0 7.82-1.53 10.16-4.59zm27.15 17.71V23.32h12.68v5.49a16.25 16.25 0 0 1 13.66-6.66c6.75 0 12.05 3.42 13.94 7.65 3-4.41 9-7.65 15.46-7.65 9.62 0 16 6.21 16 18v28.04h-12.67V43c0-6.2-2.52-9.26-7.46-9.26a10.88 10.88 0 0 0-9.36 6.13v28.32h-12.67V43c0-6.2-2.52-9.26-7.46-9.26a11.56 11.56 0 0 0-9.44 5.94v28.5zm87.48-5.31c-4.77-4.31-7.23-10.07-7.23-17.17A23.18 23.18 0 0 1 478.51 29c4.32-4.59 10-6.84 16.9-6.84 6.57 0 11.69 2.34 15.56 6.93a25.2 25.2 0 0 1 5.84 16.81v3.33h-32.19c1.35 6.11 7.11 9.35 15 9.35a28.62 28.62 0 0 0 14.38-4v10.19c-4 3.06-9.71 4.59-17.08 4.59a25.43 25.43 0 0 1-17.69-6.48zm25.08-21.76a9.12 9.12 0 0 0-9.44-9 9.8 9.8 0 0 0-10.25 9z" transform="translate(-.04 -.03)"/></svg>