<svg xmlns="http://www.w3.org/2000/svg" width="22.38" height="22.375"><defs><style>.cls-1{fill:#fff;fill-rule:evenodd}</style></defs><path class="cls-1" d="M2.82 2.815a9.63 9.63 0 1 1 0 13.619 9.631 9.631 0 0 1 0-13.619zM3.99 3.99a7.969 7.969 0 1 1 0 11.269 7.969 7.969 0 0 1 0-11.269z"/><path id="Rounded_Rectangle_595" data-name="Rounded Rectangle 595" class="cls-1" d="M1133.01 169.635a1.083 1.083 0 0 1 1.53 0l5.09 5.091a1.081 1.081 0 1 1-1.53 1.527l-5.09-5.091a1.083 1.083 0 0 1 0-1.527z" transform="translate(-1117.59 -154.219)"/></svg>